<?xml version="1.0" encoding="iso-8859-1"?>
<!-- Generator: Adobe Illustrator 19.0.0, SVG Export Plug-In . SVG Version: 6.00 Build 0)  -->
<svg version="1.1" id="Layer_1" xmlns="http://www.w3.org/2000/svg" xmlns:xlink="http://www.w3.org/1999/xlink" x="0px" y="0px"
	 viewBox="0 0 512 512" style="enable-background:new 0 0 512 512;" xml:space="preserve">
<g>
	<g>
		<path d="M495.155,50.329H218.529c-6.004,0-10.871,4.867-10.871,10.871v143.837l21.743,10.447V72.071h189.702l-73.168,21.353
			c-4.638,1.353-7.826,5.604-7.826,10.436v343.735H229.402V287.371l-21.743-9.671v180.765c0,6.004,4.867,10.871,10.871,10.871
			h119.58v31.788c0,7.267,6.987,12.458,13.917,10.436l146.175-42.657c0.024-0.007,0.048-0.017,0.071-0.025
			c4.723-1.42,7.754-5.763,7.754-10.412V61.2C506.026,55.218,501.141,50.329,495.155,50.329z M371.264,310.005
			c-8.008,0-14.422-6.553-14.422-14.422c0-7.87,6.416-14.422,14.422-14.422c7.965,0,14.422,6.457,14.422,14.422
			C385.685,303.548,379.228,310.005,371.264,310.005z"/>
	</g>
</g>
<g>
	<g>
		<path d="M139.232,61.43c-11.266-6.652-18.37-12.616-38.3-12.616c-19.499,0-26.792,5.826-37.689,12.042
			c-5.876,24.667,12.871,48.067,37.928,48.067C126.055,108.924,144.667,85.882,139.232,61.43z"/>
	</g>
</g>
<g>
	<g>
		<path d="M245.384,238.618l-48.051-23.088c-0.119-0.433-17.004-61.913-16.88-61.462c-5.307-19.322-22.873-32.714-42.91-32.714
			h-6.817c-2.613,6.828-19.859,51.882-22.271,58.181l5.178-24.391c0.364-1.713,0.099-3.499-0.744-5.033l-7.111-12.932l6.321-11.497
			c0.439-0.797,0.423-1.767-0.04-2.55s-1.305-1.264-2.216-1.264H92.496c-0.91,0-1.751,0.481-2.215,1.264
			c-0.463,0.783-0.479,1.753-0.04,2.55l6.321,11.497l-7.136,12.98c-1.669,3.035-1.172,4.512,3.764,29.376
			c-4.229-10.845-17.774-47.219-22.049-58.181H50.818c-24.432,0-44.408,19.876-44.53,44.306c-0.016,3.101-0.274,54.541-0.316,63.024
			c-0.048,9.549,7.064,17.62,16.544,18.774c82.638,10.06,77.014,9.439,78.679,9.439c9.551-0.001,17.796-7.264,18.713-17.081
			c0.956-10.228-6.787-19.241-16.985-20.482l-59.234-7.211c0.083-16.498,0.15-29.899,0.233-46.268
			c0.019-3.774,3.122-6.868,6.896-6.868h0.98v40.663l53.262,6.484c17.642,2.148,30.202,18.191,28.054,35.832
			c-2.149,17.654-18.206,30.202-35.832,28.054l-45.484-5.537c0,0-0.41,212.422-0.41,217.693c0,12.745,10.557,23.022,23.404,22.566
			c12.236-0.434,21.758-10.863,21.758-23.107V301.687h9.75v179.95c0,12.244,9.521,22.673,21.758,23.107
			c12.846,0.457,23.404-9.821,23.404-22.566c0.001-16.178-1.344-259.308-1.606-306.566c-0.002-0.401,0.299-0.737,0.698-0.779
			c0.399-0.042,0.764,0.226,0.844,0.618l11.915,58.314c1.442,5.25,5.088,9.618,9.996,11.977l55.777,26.799
			c9.372,4.503,20.609,0.55,25.108-8.811C258.697,254.362,254.752,243.119,245.384,238.618z"/>
	</g>
</g>
<g>
	<g>
		<path d="M129.901,0H72.44c-2.558,0-4.632,2.074-4.632,4.632v38.38c7.969-4.546,19.847-7.435,33.123-7.435
			c13.543,0.001,25.636,3.003,33.603,7.707V4.632C134.533,2.074,132.46,0,129.901,0z"/>
	</g>
</g>
<g>
</g>
<g>
</g>
<g>
</g>
<g>
</g>
<g>
</g>
<g>
</g>
<g>
</g>
<g>
</g>
<g>
</g>
<g>
</g>
<g>
</g>
<g>
</g>
<g>
</g>
<g>
</g>
<g>
</g>
</svg>
