<?xml version="1.0" encoding="iso-8859-1"?>
<!-- Generator: Adobe Illustrator 19.0.0, SVG Export Plug-In . SVG Version: 6.00 Build 0)  -->
<svg version="1.1" id="Layer_1" xmlns="http://www.w3.org/2000/svg" xmlns:xlink="http://www.w3.org/1999/xlink" x="0px" y="0px"
	 viewBox="0 0 512.001 512.001" style="enable-background:new 0 0 512.001 512.001;" xml:space="preserve">
<g>
	<g>
		<path d="M337.985,91.77c-3.882-2.994-9.453-2.274-12.448,1.605l-6.776,8.784c-2.994,3.882-2.275,9.454,1.605,12.448
			c3.886,2.997,9.456,2.271,12.448-1.605l6.776-8.784C342.586,100.336,341.866,94.764,337.985,91.77z"/>
	</g>
</g>
<g>
	<g>
		<path d="M314.546,122.153c-3.882-2.994-9.453-2.274-12.448,1.605l-16.664,21.599c-2.994,3.882-2.275,9.454,1.605,12.448
			c3.886,2.997,9.456,2.271,12.448-1.605l16.664-21.599C319.147,130.721,318.427,125.147,314.546,122.153z"/>
	</g>
</g>
<g>
	<g>
		<path d="M281.221,165.353c-3.882-2.994-9.453-2.274-12.448,1.605l-6.776,8.784c-2.994,3.882-2.275,9.454,1.605,12.448
			c3.886,2.998,9.456,2.271,12.448-1.605l6.776-8.784C285.821,173.92,285.101,168.347,281.221,165.353z"/>
	</g>
</g>
<g>
	<g>
		<path d="M314.912,68.597c-3.467-3.466-9.085-3.466-12.551,0l-11.766,11.766c-3.466,3.465-3.466,9.085,0,12.55
			c3.468,3.467,9.085,3.466,12.551,0l11.766-11.766C318.378,77.682,318.378,72.063,314.912,68.597z"/>
	</g>
</g>
<g>
	<g>
		<path d="M274.123,109.388c-3.467-3.466-9.085-3.466-12.551,0l-11.766,11.766c-3.466,3.466-3.466,9.085,0,12.55
			c3.468,3.467,9.085,3.466,12.551,0l11.766-11.766C277.589,118.472,277.589,112.853,274.123,109.388z"/>
	</g>
</g>
<g>
	<g>
		<path d="M291.739,45.524c-2.993-3.882-8.568-4.601-12.448-1.606l-8.784,6.776c-3.881,2.994-4.599,8.568-1.605,12.448
			c2.996,3.885,8.571,4.598,12.448,1.606l8.784-6.776C294.014,54.978,294.733,49.406,291.739,45.524z"/>
	</g>
</g>
<g>
	<g>
		<path d="M261.355,68.963c-2.993-3.881-8.568-4.601-12.448-1.605l-21.599,16.663c-3.881,2.994-4.599,8.567-1.605,12.448
			c2.996,3.883,8.571,4.597,12.448,1.605l21.599-16.663C263.631,78.417,264.349,72.845,261.355,68.963z"/>
	</g>
</g>
<g>
	<g>
		<path d="M165.933,110.597c-1.583-13.208-10.032-23.918-21.347-28.993l-27.352,42.49l4.191,26.441
			c4.017,0.931,8.259,1.195,12.589,0.676C154.043,148.809,168.333,130.625,165.933,110.597z"/>
	</g>
</g>
<g>
	<g>
		<path d="M436.459,16.955C425.525,6.022,410.99,0,395.527,0c-15.462,0-29.997,6.022-40.931,16.955l-0.453,0.453
			c-13.095-7.79-29.987-6.732-42.05,3.176l-0.128-0.128c-3.542-3.542-9.287-3.542-12.829,0s-3.542,9.287,0,12.829l51.957,51.956
			c3.543,3.543,9.287,3.542,12.829,0s3.542-9.287,0-12.829l-0.128-0.128c9.907-12.061,10.965-28.954,3.176-42.049l0.453-0.453
			c15.495-15.496,40.708-15.496,56.203,0c5.811,5.81,9.011,13.535,9.011,21.753v89.2c0,5.01,4.061,9.071,9.071,9.071
			c5.01,0,9.071-4.061,9.071-9.071V51.537C450.783,38.473,445.695,26.191,436.459,16.955z"/>
	</g>
</g>
<g>
	<g>
		<g>
			<path d="M243.496,172.563c-4.171-7.843-31.345-58.883-35.497-66.68c-4.748-8.917-15.831-12.308-24.759-7.555
				c-8.924,4.751-12.306,15.836-7.556,24.76l20.044,37.649l-31.85-1.138l-40.399,3.891l2.898,18.286l-26.861-61.408
				c3.989-6.198,29.121-45.24,32.995-51.26c5.298-8.23,2.826-19.14-5.28-24.357c-0.002-0.001-0.003-0.002-0.005-0.003
				c-8.052-5.182-19.017-3.002-24.352,5.283c-5.626,8.746-33.21,51.637-38.849,60.405c-3.128,4.86-3.741,11.079-1.328,16.602
				l30.164,66.476c0,0,13.858,123.728,13.93,124.326h0.135v173.014c0,11.68,9.469,21.148,21.148,21.148
				c11.68,0,21.148-9.469,21.148-21.148V317.839h7.192v173.014c0,11.68,9.468,21.148,21.148,21.148s21.148-9.469,21.148-21.148
				c0-169.546,0.105-191.186,0.145-193.245l-12.425-100.794l39.704,2.616c6.627,0.435,12.972-2.75,16.577-8.33
				C246.318,185.52,246.617,178.426,243.496,172.563z"/>
			<path d="M198.856,297.608l0.016,0.126C198.871,297.734,198.865,297.118,198.856,297.608z"/>
		</g>
	</g>
</g>
<g>
</g>
<g>
</g>
<g>
</g>
<g>
</g>
<g>
</g>
<g>
</g>
<g>
</g>
<g>
</g>
<g>
</g>
<g>
</g>
<g>
</g>
<g>
</g>
<g>
</g>
<g>
</g>
<g>
</g>
</svg>
