<?xml version="1.0" encoding="iso-8859-1"?>
<!-- Generator: Adobe Illustrator 19.0.0, SVG Export Plug-In . SVG Version: 6.00 Build 0)  -->
<svg version="1.1" id="Layer_1" xmlns="http://www.w3.org/2000/svg" xmlns:xlink="http://www.w3.org/1999/xlink" x="0px" y="0px"
	 viewBox="0 0 512.001 512.001" style="enable-background:new 0 0 512.001 512.001;" xml:space="preserve">
<g>
	<g>
		<path d="M497.838,348.98h-79.262c0,8.977,0,73.051,0,81.92H438.9v8.471c0,4.977,4.034,9.011,9.011,9.011h45.202
			c4.977,0,9.011-4.034,9.011-9.011v-9.134c5.726-1.817,9.877-7.172,9.877-13.499v-53.594
			C512,355.321,505.659,348.98,497.838,348.98z"/>
	</g>
</g>
<g>
	<g>
		<path d="M236.777,374.553c0,24.931,0,0.185,0,56.349h91.551c0-11.346,0-44.633,0-56.349
			C298.522,374.553,268.361,374.553,236.777,374.553z"/>
	</g>
</g>
<g>
	<g>
		<circle cx="265.804" cy="113.771" r="39.525"/>
	</g>
</g>
<g>
	<g>
		<path d="M416.646,71.803c-7.305-7.586-19.382-7.812-26.965-0.505l-95.46,91.951c-1.112,0.031-49.191,3.359-52.11,3.953
			l-78.46-112.926c-6.011-8.65-17.897-10.789-26.544-4.78c-8.65,6.01-10.79,17.894-4.781,26.544l89.15,128.311
			c0.9,12.488,6.46,89.714,7.359,102.193h-37.181c-12.639,0-22.885,10.246-22.885,22.885V443.03
			c0,12.639,10.246,22.885,22.885,22.885s22.885-10.246,22.885-22.885v-90.715c32.575,0,110.916,0,136.028,0v90.715
			c0,12.644,10.251,22.885,22.885,22.885c12.639,0,22.885-10.246,22.885-22.885V329.429c0-12.639-10.246-22.885-22.885-22.885
			h-43.339c-2.226-30.914-7.734-107.403-8.412-116.805l94.442-90.969C423.727,91.462,423.954,79.389,416.646,71.803z"/>
	</g>
</g>
<g>
	<g>
		<path d="M124.093,348.98c-0.809-2.536,1.94,3.231-37.249-75.047c-5.358-10.707-18.386-15.042-29.094-9.683
			c-2.147,1.075-4.024,2.468-5.631,4.078v-72.014c0-6.219-5.041-11.26-11.26-11.26H11.26C5.041,185.055,0,190.097,0,196.316
			l0.185,220.422c0,7.822,6.341,14.162,14.162,14.162h24.685v8.471c0,4.977,4.034,9.011,9.011,9.011h46.4
			c4.977,0,9.011-4.034,9.011-9.011V430.9h43.075c0-8.869,0-72.944,0-81.92H124.093z M52.118,348.98v-47.544l23.803,47.544H52.118z"
			/>
	</g>
</g>
<g>
</g>
<g>
</g>
<g>
</g>
<g>
</g>
<g>
</g>
<g>
</g>
<g>
</g>
<g>
</g>
<g>
</g>
<g>
</g>
<g>
</g>
<g>
</g>
<g>
</g>
<g>
</g>
<g>
</g>
</svg>
